ffmpeg version N-101030-g129bab5c7e-ge0fd35d867+2 Copyright (c) 2000-2021 the FFmpeg developers
  built with gcc 10.2.0 (Rev6, Built by MSYS2 project)
  configuration:  --pkg-config=pkgconf --cc='ccache gcc' --cxx='ccache g++' --disable-autodetect --enable-amf --enable-bzlib --enable-cuda --enable-cuvid --enable-d3d11va --enable-dxva2 --enable-iconv --enable-lzma --enable-nvenc --enable-zlib --enable-sdl2 --enable-ffnvcodec --enable-nvdec --enable-cuda-llvm --enable-libmp3lame --enable-libopus --enable-libvorbis --enable-libvpx --enable-libx264 --enable-libx265 --enable-libdav1d --enable-libaom --disable-debug --enable-fontconfig --enable-libass --enable-libbluray --enable-libfreetype --enable-libmfx --enable-libmysofa --enable-libopencore-amrnb --enable-libopencore-amrwb --enable-libopenjpeg --enable-libsnappy --enable-libsoxr --enable-libspeex --enable-libtheora --enable-libtwolame --enable-libvidstab --enable-libvo-amrwbenc --enable-libwebp --enable-libxml2 --enable-libzimg --enable-libshine --enable-gpl --enable-avisynth --enable-libxvid --enable-libopenmpt --enable-version3 --enable-libsrt --enable-libgsm --enable-libvmaf --enable-libsvtav1 --enable-librtmp --enable-mbedtls --extra-cflags=-DLIBTWOLAME_STATIC --extra-libs=-lstdc++ --extra-cflags=-DLIBXML_STATIC --extra-libs=-liconv --disable-w32threads
  libavutil      56. 64.100 / 56. 64.100
  libavcodec     58.122.100 / 58.122.100
  libavformat    58. 67.100 / 58. 67.100
  libavdevice    58. 11.103 / 58. 11.103
  libavfilter     7.103.100 /  7.103.100
  libswscale      5.  8.100 /  5.  8.100
  libswresample   3.  8.100 /  3.  8.100
  libpostproc    55.  8.100 / 55.  8.100
Splitting the commandline.
Reading option '-v' ... matched as option 'v' (set logging level) with argument 'debug'.
Reading option '-nostdin' ... matched as option 'stdin' (enable or disable interaction on standard input) with argument 0.
Reading option '-progress' ... matched as option 'progress' (write program-readable progress information) with argument 'C:/Users/Acer/AppData/Local/Temp/KritaFFmpegProgress.MaRIlb'.
Reading option '-r' ... matched as option 'r' (set frame rate (Hz value, fraction or abbreviation)) with argument '24'.
Reading option '-start_number' ... matched as AVOption 'start_number' with argument '0'.
Reading option '-i' ... matched as input url with argument 'D:/Peliprojektit/Projektit/Baltic_Loop/Krita_animaatiot/Porvoo/frame%04d.png'.
Reading option '-vf' ... matched as option 'vf' (set video filters) with argument 'palettegen'.
Reading option '-y' ... matched as option 'y' (overwrite output files) with argument '1'.
Reading option 'D:/Peliprojektit/Projektit/Baltic_Loop/Krita_animaatiot/Porvoo/palette.png' ... matched as output url.
Finished splitting the commandline.
Parsing a group of options: global .
Applying option v (set logging level) with argument debug.
Applying option nostdin (enable or disable interaction on standard input) with argument 0.
Applying option progress (write program-readable progress information) with argument C:/Users/Acer/AppData/Local/Temp/KritaFFmpegProgress.MaRIlb.
[file @ 000001e29b26dac0] Setting default whitelist 'file,crypto,data'
Applying option y (overwrite output files) with argument 1.
Successfully parsed a group of options.
Parsing a group of options: input url D:/Peliprojektit/Projektit/Baltic_Loop/Krita_animaatiot/Porvoo/frame%04d.png.
Applying option r (set frame rate (Hz value, fraction or abbreviation)) with argument 24.
Successfully parsed a group of options.
Opening an input file: D:/Peliprojektit/Projektit/Baltic_Loop/Krita_animaatiot/Porvoo/frame%04d.png.
[image2 @ 000001e29b2ade40] Opening 'D:/Peliprojektit/Projektit/Baltic_Loop/Krita_animaatiot/Porvoo/frame0000.png' for reading
[file @ 000001e29b2b1900] Setting default whitelist 'file,crypto,data'
[AVIOContext @ 000001e29b2b9ac0] Statistics: 56390 bytes read, 0 seeks
[image2 @ 000001e29b2ade40] Opening 'D:/Peliprojektit/Projektit/Baltic_Loop/Krita_animaatiot/Porvoo/frame0001.png' for reading
[file @ 000001e29b2b9a00] Setting default whitelist 'file,crypto,data'
[AVIOContext @ 000001e29b2c7a80] Statistics: 56412 bytes read, 0 seeks
[image2 @ 000001e29b2ade40] Opening 'D:/Peliprojektit/Projektit/Baltic_Loop/Krita_animaatiot/Porvoo/frame0002.png' for reading
[file @ 000001e29b2c7a80] Setting default whitelist 'file,crypto,data'
[AVIOContext @ 000001e29b2b1900] Statistics: 57043 bytes read, 0 seeks
[image2 @ 000001e29b2ade40] Opening 'D:/Peliprojektit/Projektit/Baltic_Loop/Krita_animaatiot/Porvoo/frame0003.png' for reading
[file @ 000001e29b2b1900] Setting default whitelist 'file,crypto,data'
[AVIOContext @ 000001e29b2b1a00] Statistics: 57040 bytes read, 0 seeks
[image2 @ 000001e29b2ade40] Opening 'D:/Peliprojektit/Projektit/Baltic_Loop/Krita_animaatiot/Porvoo/frame0004.png' for reading
[file @ 000001e29b2b1980] Setting default whitelist 'file,crypto,data'
[AVIOContext @ 000001e29b2b1a80] Statistics: 57045 bytes read, 0 seeks
[image2 @ 000001e29b2ade40] Opening 'D:/Peliprojektit/Projektit/Baltic_Loop/Krita_animaatiot/Porvoo/frame0005.png' for reading
[file @ 000001e29b2b1a40] Setting default whitelist 'file,crypto,data'
[AVIOContext @ 000001e29b2b2500] Statistics: 57504 bytes read, 0 seeks
[image2 @ 000001e29b2ade40] Opening 'D:/Peliprojektit/Projektit/Baltic_Loop/Krita_animaatiot/Porvoo/frame0006.png' for reading
[file @ 000001e29b2b2500] Setting default whitelist 'file,crypto,data'
[AVIOContext @ 000001e29b2b2600] Statistics: 57475 bytes read, 0 seeks
[image2 @ 000001e29b2ade40] Opening 'D:/Peliprojektit/Projektit/Baltic_Loop/Krita_animaatiot/Porvoo/frame0007.png' for reading
[file @ 000001e29b2b2580] Setting default whitelist 'file,crypto,data'
[AVIOContext @ 000001e29b2b27c0] Statistics: 57455 bytes read, 0 seeks
[image2 @ 000001e29b2ade40] Opening 'D:/Peliprojektit/Projektit/Baltic_Loop/Krita_animaatiot/Porvoo/frame0008.png' for reading
[file @ 000001e29b2b27c0] Setting default whitelist 'file,crypto,data'
[AVIOContext @ 000001e29b2b28c0] Statistics: 57742 bytes read, 0 seeks
[image2 @ 000001e29b2ade40] Opening 'D:/Peliprojektit/Projektit/Baltic_Loop/Krita_animaatiot/Porvoo/frame0009.png' for reading
[file @ 000001e29b2b2880] Setting default whitelist 'file,crypto,data'
[AVIOContext @ 000001e29b2b2a80] Statistics: 57599 bytes read, 0 seeks
Input #0, image2, from 'D:/Peliprojektit/Projektit/Baltic_Loop/Krita_animaatiot/Porvoo/frame%04d.png':
  Duration: 00:00:00.40, start: 0.000000, bitrate: N/A
  Stream #0:0, 10, 1/25: Video: png, 1 reference frame, rgba(pc), 1920x1080 [SAR 2834:2834 DAR 16:9], 0/1, 25 fps, 25 tbr, 25 tbn, 25 tbc
Successfully opened the file.
Parsing a group of options: output url D:/Peliprojektit/Projektit/Baltic_Loop/Krita_animaatiot/Porvoo/palette.png.
Applying option vf (set video filters) with argument palettegen.
Successfully parsed a group of options.
Opening an output file: D:/Peliprojektit/Projektit/Baltic_Loop/Krita_animaatiot/Porvoo/palette.png.
Successfully opened the file.
detected 8 logical cores
Stream mapping:
  Stream #0:0 -> #0:0 (png (native) -> png (native))
cur_dts is invalid st:0 (0) [init:0 i_done:0 finish:0] (this is harmless if it occurs once at the start per stream)
    Last message repeated 8 times
[graph 0 input from stream 0:0 @ 000001e29b2c7a80] Setting 'video_size' to value '1920x1080'
[graph 0 input from stream 0:0 @ 000001e29b2c7a80] Setting 'pix_fmt' to value '26'
[graph 0 input from stream 0:0 @ 000001e29b2c7a80] Setting 'time_base' to value '1/24'
[graph 0 input from stream 0:0 @ 000001e29b2c7a80] Setting 'pixel_aspect' to value '2834/2834'
[graph 0 input from stream 0:0 @ 000001e29b2c7a80] Setting 'frame_rate' to value '24/1'
[graph 0 input from stream 0:0 @ 000001e29b2c7a80] w:1920 h:1080 pixfmt:rgba tb:1/24 fr:24/1 sar:2834/2834
[format @ 000001e29b32e7c0] Setting 'pix_fmts' to value 'rgb24|rgba|rgb48be|rgba64be|pal8|gray|ya8|gray16be|ya16be|monob'
[auto_scaler_0 @ 000001e29c0a0500] Setting 'flags' to value 'bicubic'
[auto_scaler_0 @ 000001e29c0a0500] w:iw h:ih flags:'bicubic' interl:0
[Parsed_palettegen_0 @ 000001e299a87900] auto-inserting filter 'auto_scaler_0' between the filter 'graph 0 input from stream 0:0' and the filter 'Parsed_palettegen_0'
[auto_scaler_1 @ 000001e29c0a0900] Setting 'flags' to value 'bicubic'
[auto_scaler_1 @ 000001e29c0a0900] w:iw h:ih flags:'bicubic' interl:0
[format @ 000001e29b32e7c0] auto-inserting filter 'auto_scaler_1' between the filter 'Parsed_palettegen_0' and the filter 'format'
[AVFilterGraph @ 000001e29bf7bd00] query_formats: 4 queried, 1 merged, 2 already done, 0 delayed
[auto_scaler_1 @ 000001e29c0a0900] picking rgba out of 10 ref:bgra alpha:1
[swscaler @ 000001e29c0a2fc0] Forcing full internal H chroma due to input having non subsampled chroma
[auto_scaler_0 @ 000001e29c0a0500] w:1920 h:1080 fmt:rgba sar:2834/2834 -> w:1920 h:1080 fmt:bgra sar:1/1 flags:0x4
[swscaler @ 000001e29c0b8a00] Forcing full internal H chroma due to input having non subsampled chroma
[auto_scaler_1 @ 000001e29c0a0900] w:16 h:16 fmt:bgra sar:1/1 -> w:16 h:16 fmt:rgba sar:1/1 flags:0x4
cur_dts is invalid st:0 (0) [init:0 i_done:0 finish:0] (this is harmless if it occurs once at the start per stream)
    Last message repeated 9 times
[Parsed_palettegen_0 @ 000001e299a87900] 255(+1) colors generated out of 1718 colors; ratio=0.148428
[Parsed_palettegen_0 @ 000001e299a87900] Dupped color: FFDE0A00
[Parsed_palettegen_0 @ 000001e299a87900] Dupped color: FFDF0A00
[Parsed_palettegen_0 @ 000001e299a87900] Dupped color: FFE00A00
[Parsed_palettegen_0 @ 000001e299a87900] Dupped color: FFE10A00
    Last message repeated 1 times
[Parsed_palettegen_0 @ 000001e299a87900] Dupped color: FFE30A00
    Last message repeated 3 times
[Parsed_palettegen_0 @ 000001e299a87900] Dupped color: FFE40A00
    Last message repeated 6 times
[Parsed_palettegen_0 @ 000001e299a87900] Dupped color: FFE50A00
    Last message repeated 10 times
[Parsed_palettegen_0 @ 000001e299a87900] Dupped color: FFE60A00
    Last message repeated 8 times
[Parsed_palettegen_0 @ 000001e299a87900] Dupped color: FFE70A00
    Last message repeated 11 times
[Parsed_palettegen_0 @ 000001e299a87900] Dupped color: FFE80A00
    Last message repeated 4 times
[Parsed_palettegen_0 @ 000001e299a87900] Dupped color: FFE90A00
    Last message repeated 14 times
[Parsed_palettegen_0 @ 000001e299a87900] Dupped color: FFEA0A00
    Last message repeated 18 times
[Parsed_palettegen_0 @ 000001e299a87900] Dupped color: FFEB0A00
    Last message repeated 22 times
[Parsed_palettegen_0 @ 000001e299a87900] Dupped color: FFEC0A00
    Last message repeated 31 times
[Parsed_palettegen_0 @ 000001e299a87900] Dupped color: FFED0A00
    Last message repeated 8 times
[Parsed_palettegen_0 @ 000001e299a87900] Dupped color: FFEE0A00
    Last message repeated 14 times
[Parsed_palettegen_0 @ 000001e299a87900] Dupped color: FFEF0A00
    Last message repeated 4 times
[Parsed_palettegen_0 @ 000001e299a87900] Dupped color: FFF00A00
    Last message repeated 10 times
[Parsed_palettegen_0 @ 000001e299a87900] Dupped color: FFF10A00
    Last message repeated 3 times
[Parsed_palettegen_0 @ 000001e299a87900] Dupped color: FFF20A00
    Last message repeated 7 times
[Parsed_palettegen_0 @ 000001e299a87900] Dupped color: FFF30A00
    Last message repeated 1 times
[Parsed_palettegen_0 @ 000001e299a87900] Dupped color: FFF40A00
    Last message repeated 3 times
[Parsed_palettegen_0 @ 000001e299a87900] Dupped color: FFF50A00
    Last message repeated 7 times
[Parsed_palettegen_0 @ 000001e299a87900] Dupped color: FFF60A00
    Last message repeated 1 times
[Parsed_palettegen_0 @ 000001e299a87900] Dupped color: FFF70A00
    Last message repeated 4 times
[Parsed_palettegen_0 @ 000001e299a87900] Dupped color: FFF80A00
    Last message repeated 1 times
[Parsed_palettegen_0 @ 000001e299a87900] Dupped color: FFF90A00
cur_dts is invalid st:0 (0) [init:0 i_done:0 finish:0] (this is harmless if it occurs once at the start per stream)
Output #0, image2, to 'D:/Peliprojektit/Projektit/Baltic_Loop/Krita_animaatiot/Porvoo/palette.png':
  Metadata:
    encoder         : Lavf58.67.100
  Stream #0:0, 0, 1/24: Video: png, 1 reference frame, rgba(pc, progressive), 16x16 (0x0) [SAR 1:1 DAR 1:1], 0/1, q=2-31, 200 kb/s, 24 fps, 24 tbn
    Metadata:
      encoder         : Lavc58.122.100 png
Clipping frame in rate conversion by 0.000008
frame=    1 fps=0.0 q=0.0 size=N/A time=00:00:00.00 bitrate=N/A speed=   0x    cur_dts is invalid st:0 (0) [init:1 i_done:0 finish:0] (this is harmless if it occurs once at the start per stream)
[out_0_0 @ 000001e29c09ce80] EOF on sink link out_0_0:default.
No more output streams to write to, finishing.
[image2 @ 000001e29b2b0800] Opening 'D:/Peliprojektit/Projektit/Baltic_Loop/Krita_animaatiot/Porvoo/palette.png' for writing
[file @ 000001e29c0a0000] Setting default whitelist 'file,crypto,data'
[AVIOContext @ 000001e29bfdf280] Statistics: 0 seeks, 1 writeouts
frame=    1 fps=0.0 q=-0.0 Lsize=N/A time=00:00:00.04 bitrate=N/A speed=0.321x    
[AVIOContext @ 000001e29b2adc80] Statistics: 0 seeks, 2 writeouts
video:0kB audio:0kB subtitle:0kB other streams:0kB global headers:0kB muxing overhead: unknown
Input file #0 (D:/Peliprojektit/Projektit/Baltic_Loop/Krita_animaatiot/Porvoo/frame%04d.png):
  Input stream #0:0 (video): 10 packets read (571705 bytes); 10 frames decoded; 
  Total: 10 packets (571705 bytes) demuxed
Output file #0 (D:/Peliprojektit/Projektit/Baltic_Loop/Krita_animaatiot/Porvoo/palette.png):
  Output stream #0:0 (video): 1 frames encoded; 1 packets muxed (222 bytes); 
  Total: 1 packets (222 bytes) muxed
10 frames successfully decoded, 0 decoding errors
